# xmcd
#
# Track frame offsets:
#	182
#	18330
#	33922
#	54632
#	70370
#	84345
#	129010
#	145222
#	158652
#	175105
#	194400
#	212132
#	225782
#	237400
#
# Disc length: 3490 seconds
#
# Revision: 0
# Processed by: cddbd v1.4PL0 Copyright (c) Steve Scherf et al.
# Submitted via: dBpowerAMP V4.0
#
DISCID=af0da00e
DTITLE=Jimi Hendrix - Jimi Hendrix Live
DYEAR=1900
DGENRE=Blues
TTITLE0=Jimi Hendrix - Hey Joe
TTITLE1=Jimi Hendrix - Foxy Lady
TTITLE2=Jimi Hendrix - Purple Haze
TTITLE3=Jimi Hendrix - Little Wing
TTITLE4=Jimi Hendrix - Killing Floor
TTITLE5=Jimi Hendrix - Voodoo Chile
TTITLE6=Jimi Hendrix - Wild Thing
TTITLE7=Jimi Hendrix - Fire
TTITLE8=Jimi Hendrix - The Wind Cries Mary
TTITLE9=Jimi Hendrix - Red House
TTITLE10=Jimi Hendrix - Burning of The Midnight Lamp
TTITLE11=Jimi Hendrix - Star Spangled Banner
TTITLE12=Jimi Hendrix - Can You See Mee
TTITLE13=Jimi Hendrix - Spanish Castle Magic
EXTD=by Enrico
EXTT0=
EXTT1=
EXTT2=
EXTT3=
EXTT4=
EXTT5=
EXTT6=
EXTT7=
EXTT8=
EXTT9=
EXTT10=
EXTT11=
EXTT12=
EXTT13=
PLAYORDER=
